<svg id="visual" viewBox="0 0 960 540" width="960" height="540" xmlns="http://www.w3.org/2000/svg" xmlns:xlink="http://www.w3.org/1999/xlink" version="1.1"><rect x="0" y="0" width="960" height="540" fill="#5288ee"></rect><defs><linearGradient id="grad1_0" x1="43.8%" y1="0%" x2="100%" y2="100%"><stop offset="14.444444444444446%" stop-color="#5288ee" stop-opacity="1"></stop><stop offset="85.55555555555554%" stop-color="#5288ee" stop-opacity="1"></stop></linearGradient></defs><defs><linearGradient id="grad2_0" x1="0%" y1="0%" x2="56.3%" y2="100%"><stop offset="14.444444444444446%" stop-color="#5288ee" stop-opacity="1"></stop><stop offset="85.55555555555554%" stop-color="#5288ee" stop-opacity="1"></stop></linearGradient></defs><g transform="translate(960, 0)"><path d="M0 486C-65.7 482.1 -131.4 478.1 -186 449C-240.6 419.9 -284.1 365.5 -313.2 313.2C-342.4 261 -357 210.7 -383.4 158.8C-409.8 106.9 -447.9 53.5 -486 0L0 0Z" fill="#f1f5f9"></path></g><g transform="translate(0, 540)"><path d="M0 -486C50.2 -450.2 100.4 -414.3 164.6 -397.3C228.7 -380.2 306.6 -382 343.7 -343.7C380.7 -305.3 376.7 -227 393.6 -163C410.5 -99.1 448.2 -49.5 486 0L0 0Z" fill="#f1f5f9"></path></g></svg>