<svg id="visual" viewBox="0 0 960 540" width="960" height="540" xmlns="http://www.w3.org/2000/svg" xmlns:xlink="http://www.w3.org/1999/xlink" version="1.1"><rect x="0" y="0" width="960" height="540" fill="#168fec"></rect><path d="M0 338L17.8 342C35.7 346 71.3 354 106.8 359.8C142.3 365.7 177.7 369.3 213.2 366.5C248.7 363.7 284.3 354.3 320 353.7C355.7 353 391.3 361 426.8 362.7C462.3 364.3 497.7 359.7 533.2 361.5C568.7 363.3 604.3 371.7 640 364.8C675.7 358 711.3 336 746.8 326.3C782.3 316.7 817.7 319.3 853.2 331.8C888.7 344.3 924.3 366.7 942.2 377.8L960 389L960 541L942.2 541C924.3 541 888.7 541 853.2 541C817.7 541 782.3 541 746.8 541C711.3 541 675.7 541 640 541C604.3 541 568.7 541 533.2 541C497.7 541 462.3 541 426.8 541C391.3 541 355.7 541 320 541C284.3 541 248.7 541 213.2 541C177.7 541 142.3 541 106.8 541C71.3 541 35.7 541 17.8 541L0 541Z" fill="#2452c7"></path><path d="M0 387L17.8 385.3C35.7 383.7 71.3 380.3 106.8 379.7C142.3 379 177.7 381 213.2 377.5C248.7 374 284.3 365 320 359.3C355.7 353.7 391.3 351.3 426.8 356.7C462.3 362 497.7 375 533.2 384.8C568.7 394.7 604.3 401.3 640 399.5C675.7 397.7 711.3 387.3 746.8 384C782.3 380.7 817.7 384.3 853.2 383.7C888.7 383 924.3 378 942.2 375.5L960 373L960 541L942.2 541C924.3 541 888.7 541 853.2 541C817.7 541 782.3 541 746.8 541C711.3 541 675.7 541 640 541C604.3 541 568.7 541 533.2 541C497.7 541 462.3 541 426.8 541C391.3 541 355.7 541 320 541C284.3 541 248.7 541 213.2 541C177.7 541 142.3 541 106.8 541C71.3 541 35.7 541 17.8 541L0 541Z" fill="#0083e1"></path><path d="M0 421L17.8 419.3C35.7 417.7 71.3 414.3 106.8 412.5C142.3 410.7 177.7 410.3 213.2 407C248.7 403.7 284.3 397.3 320 392.5C355.7 387.7 391.3 384.3 426.8 385.2C462.3 386 497.7 391 533.2 397.3C568.7 403.7 604.3 411.3 640 411.8C675.7 412.3 711.3 405.7 746.8 403.2C782.3 400.7 817.7 402.3 853.2 402.2C888.7 402 924.3 400 942.2 399L960 398L960 541L942.2 541C924.3 541 888.7 541 853.2 541C817.7 541 782.3 541 746.8 541C711.3 541 675.7 541 640 541C604.3 541 568.7 541 533.2 541C497.7 541 462.3 541 426.8 541C391.3 541 355.7 541 320 541C284.3 541 248.7 541 213.2 541C177.7 541 142.3 541 106.8 541C71.3 541 35.7 541 17.8 541L0 541Z" fill="#00aeed"></path><path d="M0 402L17.8 403.2C35.7 404.3 71.3 406.7 106.8 411.5C142.3 416.3 177.7 423.7 213.2 422.2C248.7 420.7 284.3 410.3 320 412.2C355.7 414 391.3 428 426.8 435.8C462.3 443.7 497.7 445.3 533.2 441.5C568.7 437.7 604.3 428.3 640 425.7C675.7 423 711.3 427 746.8 424.2C782.3 421.3 817.7 411.7 853.2 413.2C888.7 414.7 924.3 427.3 942.2 433.7L960 440L960 541L942.2 541C924.3 541 888.7 541 853.2 541C817.7 541 782.3 541 746.8 541C711.3 541 675.7 541 640 541C604.3 541 568.7 541 533.2 541C497.7 541 462.3 541 426.8 541C391.3 541 355.7 541 320 541C284.3 541 248.7 541 213.2 541C177.7 541 142.3 541 106.8 541C71.3 541 35.7 541 17.8 541L0 541Z" fill="#18ccea"></path><path d="M0 460L17.8 456.2C35.7 452.3 71.3 444.7 106.8 439.7C142.3 434.7 177.7 432.3 213.2 434.5C248.7 436.7 284.3 443.3 320 444.8C355.7 446.3 391.3 442.7 426.8 437.3C462.3 432 497.7 425 533.2 429.5C568.7 434 604.3 450 640 452.2C675.7 454.3 711.3 442.7 746.8 439.7C782.3 436.7 817.7 442.3 853.2 440.3C888.7 438.3 924.3 428.7 942.2 423.8L960 419L960 541L942.2 541C924.3 541 888.7 541 853.2 541C817.7 541 782.3 541 746.8 541C711.3 541 675.7 541 640 541C604.3 541 568.7 541 533.2 541C497.7 541 462.3 541 426.8 541C391.3 541 355.7 541 320 541C284.3 541 248.7 541 213.2 541C177.7 541 142.3 541 106.8 541C71.3 541 35.7 541 17.8 541L0 541Z" fill="#18ccea"></path><path d="M0 458L17.8 458.2C35.7 458.3 71.3 458.7 106.8 457.5C142.3 456.3 177.7 453.7 213.2 456.2C248.7 458.7 284.3 466.3 320 472C355.7 477.7 391.3 481.3 426.8 480.8C462.3 480.3 497.7 475.7 533.2 473.3C568.7 471 604.3 471 640 467.7C675.7 464.3 711.3 457.7 746.8 456.8C782.3 456 817.7 461 853.2 461.7C888.7 462.3 924.3 458.7 942.2 456.8L960 455L960 541L942.2 541C924.3 541 888.7 541 853.2 541C817.7 541 782.3 541 746.8 541C711.3 541 675.7 541 640 541C604.3 541 568.7 541 533.2 541C497.7 541 462.3 541 426.8 541C391.3 541 355.7 541 320 541C284.3 541 248.7 541 213.2 541C177.7 541 142.3 541 106.8 541C71.3 541 35.7 541 17.8 541L0 541Z" fill="#00aeed"></path><path d="M0 482L17.8 482C35.7 482 71.3 482 106.8 480C142.3 478 177.7 474 213.2 474.8C248.7 475.7 284.3 481.3 320 482.7C355.7 484 391.3 481 426.8 482.2C462.3 483.3 497.7 488.7 533.2 491.8C568.7 495 604.3 496 640 496.7C675.7 497.3 711.3 497.7 746.8 496.7C782.3 495.7 817.7 493.3 853.2 491.7C888.7 490 924.3 489 942.2 488.5L960 488L960 541L942.2 541C924.3 541 888.7 541 853.2 541C817.7 541 782.3 541 746.8 541C711.3 541 675.7 541 640 541C604.3 541 568.7 541 533.2 541C497.7 541 462.3 541 426.8 541C391.3 541 355.7 541 320 541C284.3 541 248.7 541 213.2 541C177.7 541 142.3 541 106.8 541C71.3 541 35.7 541 17.8 541L0 541Z" fill="#0083e1"></path><path d="M0 523L17.8 520.7C35.7 518.3 71.3 513.7 106.8 510.5C142.3 507.3 177.7 505.7 213.2 506.8C248.7 508 284.3 512 320 512.8C355.7 513.7 391.3 511.3 426.8 509C462.3 506.7 497.7 504.3 533.2 503.3C568.7 502.3 604.3 502.7 640 501.7C675.7 500.7 711.3 498.3 746.8 498.7C782.3 499 817.7 502 853.2 504.8C888.7 507.7 924.3 510.3 942.2 511.7L960 513L960 541L942.2 541C924.3 541 888.7 541 853.2 541C817.7 541 782.3 541 746.8 541C711.3 541 675.7 541 640 541C604.3 541 568.7 541 533.2 541C497.7 541 462.3 541 426.8 541C391.3 541 355.7 541 320 541C284.3 541 248.7 541 213.2 541C177.7 541 142.3 541 106.8 541C71.3 541 35.7 541 17.8 541L0 541Z" fill="#2452c7"></path></svg>